<?xml version="1.0" encoding="UTF-8" standalone="no"?>
<svg
   xmlns:dc="http://purl.org/dc/elements/1.1/"
   xmlns:cc="http://creativecommons.org/ns#"
   xmlns:rdf="http://www.w3.org/1999/02/22-rdf-syntax-ns#"
   xmlns:svg="http://www.w3.org/2000/svg"
   xmlns="http://www.w3.org/2000/svg"
   xmlns:sodipodi="http://sodipodi.sourceforge.net/DTD/sodipodi-0.dtd"
   xmlns:inkscape="http://www.inkscape.org/namespaces/inkscape"
   viewBox="0 0 128 128"
   height="128"
   width="128"
   xml:space="preserve"
   id="svg2"
   version="1.1"
   sodipodi:docname="icon.svg"
   inkscape:version="1.0.1 (3bc2e813f5, 2020-09-07)"
   inkscape:export-filename="/home/cecile/repos/third-i-frontend/public/logo512.png"
   inkscape:export-xdpi="384"
   inkscape:export-ydpi="384"><sodipodi:namedview
     pagecolor="#231f20"
     bordercolor="#666666"
     borderopacity="1"
     objecttolerance="10"
     gridtolerance="10"
     guidetolerance="10"
     inkscape:pageopacity="1"
     inkscape:pageshadow="2"
     inkscape:window-width="1444"
     inkscape:window-height="1043"
     id="namedview21"
     showgrid="false"
     fit-margin-top="20"
     fit-margin-left="20"
     fit-margin-right="20"
     fit-margin-bottom="20"
     inkscape:zoom="1.94566"
     inkscape:cx="98.775013"
     inkscape:cy="108.82802"
     inkscape:window-x="109"
     inkscape:window-y="14"
     inkscape:window-maximized="0"
     inkscape:current-layer="g10"
     inkscape:document-rotation="0" /><metadata
     id="metadata8"><rdf:RDF><cc:Work
         rdf:about=""><dc:format>image/svg+xml</dc:format><dc:type
           rdf:resource="http://purl.org/dc/dcmitype/StillImage" /><dc:title></dc:title></cc:Work></rdf:RDF></metadata><defs
     id="defs6" /><g
     transform="matrix(1.3333333,0,0,-1.3333333,-128.65811,224.51346)"
     id="g10"><g
       transform="matrix(0.1,0,0,0.1,13.652168,-33.157487)"
       id="g12"><path
         id="path30"
         style="fill:#f1511b;fill-opacity:1;fill-rule:nonzero;stroke:none"
         d="m 1573.61,1810.48 h -559.74 v -48.45 h 559.74 v 48.45" /><path
         id="path32"
         style="fill:none;stroke:#100f0d;stroke-width:5;stroke-linecap:butt;stroke-linejoin:miter;stroke-miterlimit:10;stroke-dasharray:none;stroke-opacity:1"
         d="m 1573.61,1810.48 h -559.74 v -48.45 h 559.74 z" /><path
         id="path34"
         style="fill:#f1511b;fill-opacity:1;fill-rule:nonzero;stroke:none"
         d="m 1259.18,1341.54 -61.12,68.92 c 29.62,-10.77 61.56,-16.66 94.86,-16.66 10.99,0 21.81,0.71 32.47,1.95 -27.29,-18.84 -50.58,-39.3 -66.21,-54.21 z m -190.59,330.66 v 11.2 h 448.66 v -11.2 c 0,-123.7 -100.64,-224.33 -224.33,-224.33 -123.7,0 -224.33,100.63 -224.33,224.33 z m 385.65,-226.85 c -0.09,0 -0.17,-0.01 -0.26,-0.01 70.94,50.5 117.34,133.34 117.34,226.86 v 65.27 h -556.8 v -65.27 c 0,-83.83 37.29,-159.06 96.09,-210.14 l -127.598,-135.72 39.388,-37.04 108.51,115.4 126.9,-143.09 20.26,22.21 c 27.25,29.89 112.04,107.46 176.17,107.46 99.89,0 126.54,-80.14 126.54,-127.49 h 54.07 c 0,90.22 -62.04,181.56 -180.61,181.56" /><path
         id="path36"
         style="fill:none;stroke:#100f0d;stroke-width:5;stroke-linecap:butt;stroke-linejoin:miter;stroke-miterlimit:10;stroke-dasharray:none;stroke-opacity:1"
         d="m 1259.18,1341.54 -61.12,68.92 c 29.62,-10.77 61.56,-16.66 94.86,-16.66 10.99,0 21.81,0.71 32.47,1.95 -27.29,-18.84 -50.58,-39.3 -66.21,-54.21 z m -190.59,330.66 v 11.2 h 448.66 v -11.2 c 0,-123.7 -100.64,-224.33 -224.33,-224.33 -123.7,0 -224.33,100.63 -224.33,224.33 z m 385.65,-226.85 c -0.09,0 -0.17,-0.01 -0.26,-0.01 70.94,50.5 117.34,133.34 117.34,226.86 v 65.27 h -556.8 v -65.27 c 0,-83.83 37.29,-159.06 96.09,-210.14 l -127.598,-135.72 39.388,-37.04 108.51,115.4 126.9,-143.09 20.26,22.21 c 27.25,29.89 112.04,107.46 176.17,107.46 99.89,0 126.54,-80.14 126.54,-127.49 h 54.07 c 0,90.22 -62.04,181.56 -180.61,181.56 z" /><path
         id="path38"
         style="fill:#f1511b;fill-opacity:1;fill-rule:nonzero;stroke:none"
         d="m 1376.57,1574.04 c 0,-46.35 -37.57,-83.9 -83.92,-83.9 -46.33,0 -83.89,37.55 -83.89,83.9 0,46.33 37.56,83.89 83.89,83.89 l 0.19,-83.89 h 83.73" /></g></g></svg>
