<?xml version="1.0" encoding="UTF-8" standalone="no"?>
<svg
   xmlns:dc="http://purl.org/dc/elements/1.1/"
   xmlns:cc="http://creativecommons.org/ns#"
   xmlns:rdf="http://www.w3.org/1999/02/22-rdf-syntax-ns#"
   xmlns:svg="http://www.w3.org/2000/svg"
   xmlns="http://www.w3.org/2000/svg"
   xmlns:sodipodi="http://sodipodi.sourceforge.net/DTD/sodipodi-0.dtd"
   xmlns:inkscape="http://www.inkscape.org/namespaces/inkscape"
   viewBox="0 0 200 200"
   height="200"
   width="200"
   xml:space="preserve"
   id="svg2"
   version="1.1"
   sodipodi:docname="third-i.svg"
   inkscape:version="1.0.1 (3bc2e813f5, 2020-09-07)"
   inkscape:export-filename="/home/cecile/repos/third-i-frontend/public/logo192.png"
   inkscape:export-xdpi="92.160004"
   inkscape:export-ydpi="92.160004"><sodipodi:namedview
     pagecolor="#231f20"
     bordercolor="#666666"
     borderopacity="1"
     objecttolerance="10"
     gridtolerance="10"
     guidetolerance="10"
     inkscape:pageopacity="1"
     inkscape:pageshadow="2"
     inkscape:window-width="1444"
     inkscape:window-height="1043"
     id="namedview21"
     showgrid="false"
     fit-margin-top="0"
     fit-margin-left="0"
     fit-margin-right="0"
     fit-margin-bottom="0"
     inkscape:zoom="1.94566"
     inkscape:cx="-17.966078"
     inkscape:cy="82"
     inkscape:window-x="138"
     inkscape:window-y="33"
     inkscape:window-maximized="0"
     inkscape:current-layer="g10"
     inkscape:document-rotation="0" /><metadata
     id="metadata8"><rdf:RDF><cc:Work
         rdf:about=""><dc:format>image/svg+xml</dc:format><dc:type
           rdf:resource="http://purl.org/dc/dcmitype/StillImage" /><dc:title></dc:title></cc:Work></rdf:RDF></metadata><defs
     id="defs6" /><g
     transform="matrix(1.3333333,0,0,-1.3333333,-93.540664,241.73066)"
     id="g10"><g
       transform="matrix(0.1,0,0,0.1,13.545752,-27.912902)"
       id="g12"><path
         id="path16"
         style="fill:#f1511b;fill-opacity:1;fill-rule:nonzero;stroke:none"
         d="m 1461.1,1150.08 c 47.39,0 86.95,-36.82 86.95,-83.81 0,-64.63 -57.57,-81.071 -90.46,-81.071 l 85.36,-98.687 c 2.35,-2.352 3.14,-4.703 3.14,-8.211 v -1.18 c 0,-3.922 -2.36,-5.883 -6.66,-5.883 h -105.42 c -4.31,0 -6.66,2.352 -6.66,6.672 v 2.352 c 0,4.289 2.35,6.636 6.66,6.636 h 67.43 c 13.7,0 21.16,-0.769 21.16,-0.769 v 0.769 c 0,0 -6.27,5.5 -12.16,12.532 l -73.22,85.769 c -2.36,2.75 -2.75,5.481 -1.57,9.012 l 0.78,1.57 c 1.17,3.508 3.91,5.089 7.43,5.089 h 13.33 c 37.2,0 73.23,22.72 73.23,65.4 0,40.34 -33.68,67.36 -68.53,67.36 h -107.88 v 10.64 c 0,3.21 2.6,5.81 5.81,5.81 h 101.28" /><path
         id="path18"
         style="fill:#f1511b;fill-opacity:1;fill-rule:nonzero;stroke:none"
         d="M 1605.94,1130.8 V 887.988 h 66.57 c 72.84,0 121.79,43.102 121.79,121.412 0,78.73 -48.95,121.4 -121.79,121.4 z m -16.84,9.02 c 0,4.3 2.35,6.64 6.66,6.64 h 79.49 c 81.46,0 136.68,-49.73 136.68,-137.06 0,-86.931 -55.22,-137.06 -136.68,-137.06 h -79.49 c -4.31,0 -6.66,2.34 -6.66,6.66 v 260.82" /><path
         id="path20"
         style="fill:#ffffff;fill-opacity:1;fill-rule:nonzero;stroke:none"
         d="m 805.449,1134.21 h -97.125 c -4.383,0 -6.769,2.39 -6.769,6.77 v 2.4 c 0,4.37 2.386,6.75 6.769,6.75 h 211.36 c 4.379,0 6.761,-2.38 6.761,-6.75 v -2.4 c 0,-4.38 -2.382,-6.77 -6.761,-6.77 H 822.566 V 878.27 c 0,-4.372 -2.386,-6.77 -6.769,-6.77 h -3.582 c -4.375,0 -6.766,2.398 -6.766,6.77 v 255.94" /><path
         id="path22"
         style="fill:#ffffff;fill-opacity:1;fill-rule:nonzero;stroke:none"
         d="m 970.668,1143.38 c 0,4.37 2.387,6.75 6.766,6.75 h 3.582 c 4.375,0 6.769,-2.38 6.769,-6.75 v -124.19 h 176.725 v 124.19 c 0,4.37 2.4,6.75 6.77,6.75 h 3.58 c 4.38,0 6.77,-2.38 6.77,-6.75 V 878.27 c 0,-4.372 -2.39,-6.77 -6.77,-6.77 h -3.58 c -4.37,0 -6.77,2.398 -6.77,6.77 v 124.98 H 987.785 V 878.27 c 0,-4.372 -2.394,-6.77 -6.769,-6.77 h -3.582 c -4.379,0 -6.766,2.398 -6.766,6.77 v 265.11" /><path
         id="path24"
         style="fill:#ffffff;fill-opacity:1;fill-rule:nonzero;stroke:none"
         d="m 1265.26,1143.38 c 0,4.37 2.38,6.75 6.76,6.75 h 3.58 c 4.38,0 6.77,-2.38 6.77,-6.75 V 878.27 c 0,-4.372 -2.39,-6.77 -6.77,-6.77 h -3.58 c -4.38,0 -6.76,2.398 -6.76,6.77 v 265.11" /><path
         id="path26"
         style="fill:#ffffff;fill-opacity:1;fill-rule:nonzero;stroke:none"
         d="m 1354.01,1143.38 c 0,4.37 2.39,6.75 6.76,6.75 h 3.58 c 4.38,0 6.77,-2.38 6.77,-6.75 V 878.27 c 0,-4.372 -2.39,-6.77 -6.77,-6.77 h -3.58 c -4.37,0 -6.76,2.398 -6.76,6.77 v 265.11" /><path
         id="path28"
         style="fill:#ffffff;fill-opacity:1;fill-rule:nonzero;stroke:none"
         d="m 1913.52,1143.38 c 0,4.37 2.39,6.75 6.77,6.75 h 3.59 c 4.37,0 6.76,-2.38 6.76,-6.75 V 878.27 c 0,-4.372 -2.39,-6.77 -6.76,-6.77 h -3.59 c -4.38,0 -6.77,2.398 -6.77,6.77 v 265.11" /><path
         id="path30"
         style="fill:#f1511b;fill-opacity:1;fill-rule:nonzero;stroke:none"
         d="m 1573.61,1810.48 h -559.74 v -48.45 h 559.74 v 48.45" /><path
         id="path32"
         style="fill:none;stroke:#100f0d;stroke-width:5;stroke-linecap:butt;stroke-linejoin:miter;stroke-miterlimit:10;stroke-dasharray:none;stroke-opacity:1"
         d="m 1573.61,1810.48 h -559.74 v -48.45 h 559.74 z" /><path
         id="path34"
         style="fill:#f1511b;fill-opacity:1;fill-rule:nonzero;stroke:none"
         d="m 1259.18,1341.54 -61.12,68.92 c 29.62,-10.77 61.56,-16.66 94.86,-16.66 10.99,0 21.81,0.71 32.47,1.95 -27.29,-18.84 -50.58,-39.3 -66.21,-54.21 z m -190.59,330.66 v 11.2 h 448.66 v -11.2 c 0,-123.7 -100.64,-224.33 -224.33,-224.33 -123.7,0 -224.33,100.63 -224.33,224.33 z m 385.65,-226.85 c -0.09,0 -0.17,-0.01 -0.26,-0.01 70.94,50.5 117.34,133.34 117.34,226.86 v 65.27 h -556.8 v -65.27 c 0,-83.83 37.29,-159.06 96.09,-210.14 l -127.598,-135.72 39.388,-37.04 108.51,115.4 126.9,-143.09 20.26,22.21 c 27.25,29.89 112.04,107.46 176.17,107.46 99.89,0 126.54,-80.14 126.54,-127.49 h 54.07 c 0,90.22 -62.04,181.56 -180.61,181.56" /><path
         id="path36"
         style="fill:none;stroke:#100f0d;stroke-width:5;stroke-linecap:butt;stroke-linejoin:miter;stroke-miterlimit:10;stroke-dasharray:none;stroke-opacity:1"
         d="m 1259.18,1341.54 -61.12,68.92 c 29.62,-10.77 61.56,-16.66 94.86,-16.66 10.99,0 21.81,0.71 32.47,1.95 -27.29,-18.84 -50.58,-39.3 -66.21,-54.21 z m -190.59,330.66 v 11.2 h 448.66 v -11.2 c 0,-123.7 -100.64,-224.33 -224.33,-224.33 -123.7,0 -224.33,100.63 -224.33,224.33 z m 385.65,-226.85 c -0.09,0 -0.17,-0.01 -0.26,-0.01 70.94,50.5 117.34,133.34 117.34,226.86 v 65.27 h -556.8 v -65.27 c 0,-83.83 37.29,-159.06 96.09,-210.14 l -127.598,-135.72 39.388,-37.04 108.51,115.4 126.9,-143.09 20.26,22.21 c 27.25,29.89 112.04,107.46 176.17,107.46 99.89,0 126.54,-80.14 126.54,-127.49 h 54.07 c 0,90.22 -62.04,181.56 -180.61,181.56 z" /><path
         id="path38"
         style="fill:#f1511b;fill-opacity:1;fill-rule:nonzero;stroke:none"
         d="m 1376.57,1574.04 c 0,-46.35 -37.57,-83.9 -83.92,-83.9 -46.33,0 -83.89,37.55 -83.89,83.9 0,46.33 37.56,83.89 83.89,83.89 l 0.19,-83.89 h 83.73" /><path
         id="path40"
         style="fill:#ffffff;fill-opacity:1;fill-rule:nonzero;stroke:none"
         d="m 1871.65,1011.37 c 0,-9.34 -7.57,-16.909 -16.91,-16.909 -9.33,0 -16.9,7.569 -16.9,16.909 0,9.33 7.57,16.89 16.9,16.89 l 0.04,-16.9 16.87,0.01" /></g></g></svg>
