<?xml version="1.0" encoding="UTF-8" standalone="no"?>
<svg
   xmlns:dc="http://purl.org/dc/elements/1.1/"
   xmlns:cc="http://creativecommons.org/ns#"
   xmlns:rdf="http://www.w3.org/1999/02/22-rdf-syntax-ns#"
   xmlns:svg="http://www.w3.org/2000/svg"
   xmlns="http://www.w3.org/2000/svg"
   xmlns:sodipodi="http://sodipodi.sourceforge.net/DTD/sodipodi-0.dtd"
   xmlns:inkscape="http://www.inkscape.org/namespaces/inkscape"
   viewBox="0 0 217.8006 298.08615"
   height="298.08615"
   width="217.8006"
   xml:space="preserve"
   id="svg2"
   version="1.1"
   sodipodi:docname="watermark.svg"
   inkscape:version="1.0.1 (3bc2e813f5, 2020-09-07)"><sodipodi:namedview
     pagecolor="#000000"
     bordercolor="#666666"
     borderopacity="1"
     objecttolerance="10"
     gridtolerance="10"
     guidetolerance="10"
     inkscape:pageopacity="0"
     inkscape:pageshadow="2"
     inkscape:window-width="1428"
     inkscape:window-height="1081"
     id="namedview40"
     showgrid="false"
     inkscape:zoom="2.7515788"
     inkscape:cx="95.661052"
     inkscape:cy="147.57376"
     inkscape:window-x="58"
     inkscape:window-y="9"
     inkscape:window-maximized="0"
     inkscape:current-layer="g10"
     fit-margin-top="0"
     fit-margin-left="0"
     fit-margin-right="0"
     fit-margin-bottom="0" /><metadata
     id="metadata8"><rdf:RDF><cc:Work
         rdf:about=""><dc:format>image/svg+xml</dc:format><dc:type
           rdf:resource="http://purl.org/dc/dcmitype/StillImage" /><dc:title></dc:title></cc:Work></rdf:RDF></metadata><defs
     id="defs6" /><g
     transform="matrix(1.3333333,0,0,-1.3333333,-66.126698,317.48107)"
     id="g10"><g
       transform="matrix(0.16924789,0,0,0.16924789,-90.90188,-87.479822)"
       id="g12"><path
         id="path16"
         style="fill:#ffffff;fill-opacity:1;fill-rule:nonzero;stroke:none"
         d="m 1793.11,1216.62 h -39.95 v -93.69 h -0.06 c -0.41,-55.77 -46.1,-111.14 -101.86,-111.14 -56.2,0 -101.91,45.72 -101.91,101.92 l -0.67,101.69 h -39.33 v -101.69 c 0,-78.26 63.66,-141.921 141.91,-141.921 39.84,0 76.03,16.879 101.92,43.751 l -0.17,-105.899 c -0.41,-55.77 -46.1,-101.141 -101.86,-101.141 -56.19,0 -101.91,45.719 -101.91,101.918 h -40 c 0,-78.258 63.67,-141.918 141.91,-141.918 76.94,0 141.83,64.02 141.83,139.52 l 0.15,308.6" /><path
         id="path18"
         style="fill:#ffffff;fill-opacity:1;fill-rule:nonzero;stroke:none"
         d="m 1000.41,810.77 v -0.071 l -127.5,-0.258 V 971.262 L 1003,971.039 c 0,0 73.82,2.473 73.82,-80.359 0,-42.899 -33.96,-78.032 -76.41,-79.91 z m -127.5,364.08 92.227,0.06 c 44.073,-0.62 79.583,-36.63 79.583,-80.26 0,-44.29 -36.03,-80.51 -80.306,-80.51 l -81.504,-0.09 h -10 z m 173.85,-172.73 c 0,0 40.92,27.59 40.92,92.53 0,67.09 -44.73,121.34 -119.817,121.34 h -128.84 c -1.32,0 -8.828,0 -8.828,0 l -0.07,-448.318 h 178.095 c 55.83,0 111.34,56.316 111.34,123.008 0,94.558 -72.8,111.44 -72.8,111.44" /><path
         id="path20"
         style="fill:#ffffff;fill-opacity:1;fill-rule:nonzero;stroke:none"
         d="m 1000.41,1308.69 v -0.08 l -127.5,-0.25 v 160.82 l 130.09,-0.23 c 0,0 73.82,2.48 73.82,-80.36 0,-42.9 -33.96,-78.02 -76.41,-79.9 z m -127.5,364.07 92.227,0.07 c 44.073,-0.62 79.583,-36.63 79.583,-80.26 0,-44.29 -36.03,-80.51 -80.306,-80.51 l -81.504,-0.1 h -10 z m 173.85,-172.72 c 0,0 40.92,27.58 40.92,92.53 0,67.09 -46.8,121.33 -121.504,121.33 H 830.195 l -0.07,-448.32 h 178.095 c 55.83,0 111.34,56.33 111.34,123.01 0,94.57 -72.8,111.45 -72.8,111.45" /><path
         id="path22"
         style="fill:#ffffff;fill-opacity:1;fill-rule:nonzero;stroke:none"
         d="m 1403.82,909.578 c 0,-56.187 -45.71,-101.906 -101.89,-101.906 -56.19,0 -101.92,45.719 -101.92,101.906 l 0.04,163.922 c 0.43,55.84 46.14,101.2 101.88,101.2 56.18,0 101.89,-45.72 101.89,-101.91 z m -101.89,305.112 c -76.96,0 -140.59,-62.6 -141.86,-139.53 l -0.02,-1.35 -0.04,-164.232 c 0,-78.25 63.67,-141.906 141.92,-141.906 78.24,0 141.89,63.656 141.89,141.906 v 163.212 c 0,78.24 -63.65,141.9 -141.89,141.9" /><path
         id="path24"
         style="fill:#ffffff;fill-opacity:1;fill-rule:nonzero;stroke:none"
         d="m 1792.78,1582.47 c -6.64,95.01 -107.25,164.55 -209.26,116.03 -45.01,-21.41 -73.18,-67.44 -74.02,-117.27 l -0.14,-8.69 -0.03,-163.28 c 0,-99.55 103.05,-175.48 208.07,-126.74 46.81,21.72 75.74,69.83 75.74,121.44 v 104.1 h -174.26 v -42.76 l 0.01,-0.01 h 134.25 v -61.91 c 0,-33.18 -16.96,-64.81 -45.98,-80.87 -78.24,-43.3 -157.83,12.6 -157.83,86.75 l 0.04,163.92 c 0.41,55.84 46.1,101.2 101.86,101.2 52.81,0 96.38,-40.39 101.42,-91.91 h 40.13" /><path
         id="path26"
         style="fill:#f1511b;fill-opacity:1;fill-rule:nonzero;stroke:none"
         d="m 839.582,630.57 c 0,0 11.356,-13.402 27.914,-13.402 10.414,0 19.082,6.301 19.082,16.562 0,23.34 -53.769,19.711 -53.769,54.399 0,16.723 14.66,29.812 35.64,29.812 11.828,0 31.692,-5.363 31.692,-20.5 v -9.152 h -14.504 v 5.199 c 0,5.852 -8.36,10.102 -17.188,10.102 -11.988,0 -19.554,-6.621 -19.554,-14.981 0,-22.55 53.613,-17.507 53.613,-54.089 0,-17.04 -13.242,-31.7 -35.32,-31.7 -23.657,0 -36.907,16.551 -36.907,16.551 l 9.301,11.199" /><path
         id="path28"
         style="fill:#f1511b;fill-opacity:1;fill-rule:nonzero;stroke:none"
         d="m 999.48,653.281 -28.226,45.27 c -2.055,3.301 -3.477,3.929 -6.785,3.929 h -3.156 v 13.571 h 7.253 c 7.571,0 10.567,-1.11 14.989,-8.512 l 16.865,-28.078 c 3.63,-6.152 6.79,-12.461 6.79,-12.461 h 0.32 c 0,0 2.98,6.309 6.77,12.461 l 16.72,28.078 c 4.41,7.402 7.57,8.512 14.99,8.512 h 7.24 V 702.48 h -2.98 c -3.32,0 -4.9,-0.628 -6.95,-3.929 l -28.07,-45.27 v -48.57 h -15.77 v 48.57" /><path
         id="path30"
         style="fill:#f1511b;fill-opacity:1;fill-rule:nonzero;stroke:none"
         d="m 1120.25,630.57 c 0,0 11.35,-13.402 27.91,-13.402 10.41,0 19.08,6.301 19.08,16.562 0,23.34 -53.77,19.711 -53.77,54.399 0,16.723 14.66,29.812 35.64,29.812 11.83,0 31.69,-5.363 31.69,-20.5 v -9.152 h -14.5 v 5.199 c 0,5.852 -8.36,10.102 -17.19,10.102 -11.99,0 -19.55,-6.621 -19.55,-14.981 0,-22.55 53.61,-17.507 53.61,-54.089 0,-17.04 -13.24,-31.7 -35.32,-31.7 -23.65,0 -36.91,16.551 -36.91,16.551 l 9.31,11.199" /><path
         id="path32"
         style="fill:#f1511b;fill-opacity:1;fill-rule:nonzero;stroke:none"
         d="m 1282.67,702.48 h -22.39 c -2.22,0 -3.48,-1.101 -3.48,-3.46 v -7.102 h -14.03 v 14.66 c 0,7.102 2.36,9.473 9.46,9.473 h 76.64 c 7.1,0 9.47,-2.371 9.47,-9.473 v -14.66 h -14.04 v 7.102 c 0,2.359 -1.26,3.46 -3.46,3.46 h -22.41 v -97.769 h -15.76 v 97.769" /><path
         id="path34"
         style="fill:#f1511b;fill-opacity:1;fill-rule:nonzero;stroke:none"
         d="m 1407.7,702.48 h -10.26 v 13.571 h 65.45 c 7.1,0 10.09,-2.992 10.09,-10.102 v -14.031 h -14.35 v 7.102 c 0,2.359 -1.26,3.46 -3.47,3.46 h -31.7 v -34.851 h 38.95 V 654.07 h -38.95 v -32.332 c 0,-2.207 1.26,-3.468 3.47,-3.468 h 32.49 c 2.21,0 3.47,1.261 3.47,3.468 v 7.102 h 14.5 v -14.039 c 0,-7.09 -2.99,-10.09 -10.09,-10.09 h -49.51 c -7.1,0 -10.09,3 -10.09,10.09 v 87.679" /><path
         id="path36"
         style="fill:#f1511b;fill-opacity:1;fill-rule:nonzero;stroke:none"
         d="m 1534.95,618.27 h 5.36 c 2.2,0 3.31,1.261 3.47,3.468 l 7.56,94.313 h 16.25 l 26.18,-58.981 c 2.68,-5.992 5.51,-14.039 5.51,-14.039 h 0.32 c 0,0 2.84,8.047 5.52,14.039 l 26.18,58.981 h 16.24 l 7.57,-94.313 c 0.16,-2.207 1.27,-3.468 3.47,-3.468 h 5.21 v -13.559 h -14.04 c -7.1,0 -9.61,3 -10.09,10.09 l -4.57,58.828 c -0.47,6.621 -0.31,16.402 -0.31,16.402 h -0.33 c 0,0 -3.15,-10.41 -5.83,-16.402 l -22.55,-48.891 h -13.25 l -22.55,48.891 c -2.68,5.832 -6,16.562 -6,16.562 h -0.31 c 0,0 0.16,-9.941 -0.32,-16.562 l -4.41,-58.828 c -0.47,-7.09 -2.99,-10.09 -10.25,-10.09 h -14.03 v 13.559" /><path
         id="path38"
         style="fill:#f1511b;fill-opacity:1;fill-rule:nonzero;stroke:none"
         d="m 1732.36,630.57 c 0,0 11.36,-13.402 27.91,-13.402 10.42,0 19.09,6.301 19.09,16.562 0,23.34 -53.78,19.711 -53.78,54.399 0,16.723 14.67,29.812 35.65,29.812 11.82,0 31.69,-5.363 31.69,-20.5 v -9.152 h -14.51 v 5.199 c 0,5.852 -8.35,10.102 -17.18,10.102 -11.99,0 -19.56,-6.621 -19.56,-14.981 0,-22.55 53.61,-17.507 53.61,-54.089 0,-17.04 -13.24,-31.7 -35.32,-31.7 -23.65,0 -36.9,16.551 -36.9,16.551 l 9.3,11.199" /><path
         id="path40"
         style="fill:#f1511b;fill-opacity:1;fill-rule:nonzero;stroke:none"
         d="m 1300.9,1587.23 c 34.59,0 67.08,13.43 91.48,37.83 42.17,42.17 50.08,107.37 19.24,158.56 l -3.3,5.48 -31.6,-31.61 1.55,-3.2 c 15.93,-33.07 9.27,-72.66 -16.59,-98.53 -16.24,-16.23 -37.86,-25.17 -60.88,-25.17 -13,0 -26.02,2.97 -37.65,8.59 l -3.2,1.54 -31.62,-31.61 5.47,-3.3 c 20.2,-12.15 43.4,-18.58 67.1,-18.58" /><path
         id="path42"
         style="fill:none;stroke:#12100f;stroke-width:5;stroke-linecap:butt;stroke-linejoin:miter;stroke-miterlimit:10;stroke-dasharray:none;stroke-opacity:1"
         d="m 1300.9,1587.23 c 34.59,0 67.08,13.43 91.48,37.83 42.17,42.17 50.08,107.37 19.24,158.56 l -3.3,5.48 -31.6,-31.61 1.55,-3.2 c 15.93,-33.07 9.27,-72.66 -16.59,-98.53 -16.24,-16.23 -37.86,-25.17 -60.88,-25.17 -13,0 -26.02,2.97 -37.65,8.59 l -3.2,1.54 -31.62,-31.61 5.47,-3.3 c 20.2,-12.15 43.4,-18.58 67.1,-18.58 z" /><path
         id="path44"
         style="fill:#ffffff;fill-opacity:1;fill-rule:nonzero;stroke:none"
         d="m 1343.77,1758.64 c -23.08,23.07 -60.62,23.07 -83.69,-0.01 -23.08,-23.08 -23.1,-60.63 -0.03,-83.7 23.08,-23.07 60.64,-23.07 83.72,0.01 23.08,23.08 23.07,60.61 0,83.7" /><path
         id="path46"
         style="fill:#f1511b;fill-opacity:1;fill-rule:nonzero;stroke:none"
         d="m 1300.55,1803 c 12.43,0 24.93,-2.73 36.16,-7.89 l 3.17,-1.46 31.67,31.69 -5.6,3.27 c -19.83,11.59 -42.53,17.71 -65.61,17.71 -34.58,0 -67.05,-13.43 -91.42,-37.8 -41.55,-41.56 -49.82,-106.13 -20.1,-157.04 l 3.27,-5.6 31.69,31.67 -1.45,3.16 c -15.03,32.71 -8.09,71.73 17.29,97.1 16.24,16.24 37.89,25.19 60.93,25.19" /><path
         id="path48"
         style="fill:none;stroke:#12100f;stroke-width:5;stroke-linecap:butt;stroke-linejoin:miter;stroke-miterlimit:10;stroke-dasharray:none;stroke-opacity:1"
         d="m 1300.55,1803 c 12.43,0 24.93,-2.73 36.16,-7.89 l 3.17,-1.46 31.67,31.69 -5.6,3.27 c -19.83,11.59 -42.53,17.71 -65.61,17.71 -34.58,0 -67.05,-13.43 -91.42,-37.8 -41.55,-41.56 -49.82,-106.13 -20.1,-157.04 l 3.27,-5.6 31.69,31.67 -1.45,3.16 c -15.03,32.71 -8.09,71.73 17.29,97.1 16.24,16.24 37.89,25.19 60.93,25.19 z" /><path
         id="path50"
         style="fill:#f1511b;fill-opacity:1;fill-rule:nonzero;stroke:none"
         d="m 1458.2,1683.78 c -15.53,-74.2 -81.79,-128.06 -157.56,-128.06 -75.75,0 -142,53.86 -157.54,128.06 l -0.83,3.98 h -43.94 l 1,-5.85 c 16.96,-98.28 101.63,-169.61 201.31,-169.61 99.68,0 184.36,71.33 201.36,169.61 l 1,5.85 h -43.97 l -0.83,-3.98" /><path
         id="path52"
         style="fill:none;stroke:#12100f;stroke-width:5;stroke-linecap:butt;stroke-linejoin:miter;stroke-miterlimit:10;stroke-dasharray:none;stroke-opacity:1"
         d="m 1458.2,1683.78 c -15.53,-74.2 -81.79,-128.06 -157.56,-128.06 -75.75,0 -142,53.86 -157.54,128.06 l -0.83,3.98 h -43.94 l 1,-5.85 c 16.96,-98.28 101.63,-169.61 201.31,-169.61 99.68,0 184.36,71.33 201.36,169.61 l 1,5.85 h -43.97 z" /><path
         id="path54"
         style="fill:#f1511b;fill-opacity:1;fill-rule:nonzero;stroke:none"
         d="m 1142.03,1743.57 c 13.11,77.79 79.81,134.25 158.61,134.26 78.82,0 145.53,-56.47 158.62,-134.28 l 0.71,-4.17 43.87,0.02 -0.79,5.69 c -13.96,100.43 -100.98,176.16 -202.4,176.16 -101.41,0 -188.42,-75.73 -202.4,-176.16 l -0.79,-5.69 h 43.86 l 0.71,4.17" /><path
         id="path56"
         style="fill:none;stroke:#12100f;stroke-width:5;stroke-linecap:butt;stroke-linejoin:miter;stroke-miterlimit:10;stroke-dasharray:none;stroke-opacity:1"
         d="m 1142.03,1743.57 c 13.11,77.79 79.81,134.25 158.61,134.26 78.82,0 145.53,-56.47 158.62,-134.28 l 0.71,-4.17 43.87,0.02 -0.79,5.69 c -13.96,100.43 -100.98,176.16 -202.4,176.16 -101.41,0 -188.42,-75.73 -202.4,-176.16 l -0.79,-5.69 h 43.86 z" /><path
         id="path58"
         style="fill:#ffffff;fill-opacity:1;fill-rule:nonzero;stroke:none"
         d="m 1256.56,1482.5 c 1.22,-0.21 2.43,-0.46 3.65,-0.65 -1.22,0.2 -2.43,0.44 -3.65,0.65" /><path
         id="path60"
         style="fill:#ffffff;fill-opacity:1;fill-rule:nonzero;stroke:none"
         d="m 1239.5,1486.13 c 2.92,-0.74 5.85,-1.42 8.81,-2.04 -2.95,0.63 -5.89,1.3 -8.81,2.04" /><path
         id="path62"
         style="fill:#f1511b;fill-opacity:1;fill-rule:nonzero;stroke:none"
         d="m 1156.21,1472.42 c 0,-3.18 1.16,-6.22 3.22,-8.63 10.34,-12.13 31.74,-22.66 50.86,-30.84 l -2.68,63.64 c -18.32,7.4 -35.55,16.92 -51.4,28.26 v -52.43" /><path
         id="path64"
         style="fill:none;stroke:#12100f;stroke-width:5;stroke-linecap:butt;stroke-linejoin:miter;stroke-miterlimit:10;stroke-dasharray:none;stroke-opacity:1"
         d="m 1156.21,1472.42 c 0,-3.18 1.16,-6.22 3.22,-8.63 10.34,-12.13 31.74,-22.66 50.86,-30.84 l -2.68,63.64 c -18.32,7.4 -35.55,16.92 -51.4,28.26 z" /><path
         id="path66"
         style="fill:#ffffff;fill-opacity:1;fill-rule:nonzero;stroke:none"
         d="m 1256.56,1482.5 c -2.76,0.5 -5.52,1 -8.25,1.59 -2.96,0.62 -5.89,1.3 -8.81,2.04 -0.77,0.19 -1.54,0.39 -2.31,0.6 -2.49,0.65 -5.02,1.22 -7.49,1.95 l 10,-222.6 h 50.73 v 212.7 c -10.25,0.42 -20.33,1.45 -30.22,3.07 -1.22,0.19 -2.43,0.44 -3.65,0.65" /><path
         id="path68"
         style="fill:#ffffff;fill-opacity:1;fill-rule:nonzero;stroke:none"
         d="m 1237.19,1486.73 c 0.77,-0.21 1.54,-0.41 2.31,-0.6 -0.77,0.19 -1.54,0.4 -2.31,0.6" /><path
         id="path70"
         style="fill:#ffffff;fill-opacity:1;fill-rule:nonzero;stroke:none"
         d="m 1248.31,1484.09 c 2.73,-0.59 5.49,-1.09 8.25,-1.59 -2.77,0.48 -5.51,1.02 -8.25,1.59" /><path
         id="path72"
         style="fill:#ffffff;fill-opacity:1;fill-rule:nonzero;stroke:none"
         d="m 1260.21,1481.85 c 9.89,-1.62 19.97,-2.65 30.22,-3.07 v 0.26 c -10.25,0.31 -20.33,1.27 -30.22,2.81" /><path
         id="path74"
         style="fill:#ffffff;fill-opacity:1;fill-rule:nonzero;stroke:none"
         d="m 1312.44,1266.08 h 50.73 l 9.92,223.19 c -19.33,-5.88 -39.64,-9.47 -60.65,-10.45 v -212.74" /><path
         id="path76"
         style="fill:#f1511b;fill-opacity:1;fill-rule:nonzero;stroke:none"
         d="m 1392.51,1432.95 c 19.12,8.18 40.52,18.71 50.86,30.84 2.06,2.41 3.22,5.45 3.22,8.63 v 53.47 c -15.82,-11.49 -33.04,-21.17 -51.38,-28.71 l -2.7,-64.23" /><path
         id="path78"
         style="fill:none;stroke:#12100f;stroke-width:5;stroke-linecap:butt;stroke-linejoin:miter;stroke-miterlimit:10;stroke-dasharray:none;stroke-opacity:1"
         d="m 1392.51,1432.95 c 19.12,8.18 40.52,18.71 50.86,30.84 2.06,2.41 3.22,5.45 3.22,8.63 v 53.47 c -15.82,-11.49 -33.04,-21.17 -51.38,-28.71 z" /></g></g></svg>
